<svg xmlns="http://www.w3.org/2000/svg" width="26" height="24.002" viewBox="0 0 26 24.002">
  <g id="add_review" transform="translate(-3 -3.999)">
    <path id="Контур_41" data-name="Контур 41" d="M4,28a.84.84,0,0,1-.38-.08A1,1,0,0,1,3,27V8.78A4.89,4.89,0,0,1,8,4H24a4.89,4.89,0,0,1,5,4.78v9.44A4.89,4.89,0,0,1,24,23H9.41l-4.7,4.71A1,1,0,0,1,4,28ZM8,6A2.9,2.9,0,0,0,5,8.78V24.59l3.29-3.3A1,1,0,0,1,9,21H24a2.9,2.9,0,0,0,3-2.78V8.78A2.9,2.9,0,0,0,24,6Z" fill="#3157ae"/>
    <circle id="Эллипс_7" data-name="Эллипс 7" cx="1.5" cy="1.5" r="1.5" transform="translate(14.5 12)" fill="#3157ae"/>
    <circle id="Эллипс_8" data-name="Эллипс 8" cx="1.5" cy="1.5" r="1.5" transform="translate(20 12)" fill="#3157ae"/>
    <circle id="Эллипс_9" data-name="Эллипс 9" cx="1.5" cy="1.5" r="1.5" transform="translate(9 12)" fill="#3157ae"/>
  </g>
</svg>
