<svg xmlns="http://www.w3.org/2000/svg" width="40" height="35.522" viewBox="0 0 40 35.522">
  <g id="advantage" transform="translate(-1.6 -15.8)">
    <path id="Контур_4" data-name="Контур 4" d="M106.956,23.711A3.956,3.956,0,1,0,103,19.756,3.957,3.957,0,0,0,106.956,23.711Zm0-6.3a2.342,2.342,0,1,1-2.342,2.342A2.347,2.347,0,0,1,106.956,17.414Z" transform="translate(-85.356)" fill="#3157ae"/>
    <path id="Контур_5" data-name="Контур 5" d="M12.992,90.867a.793.793,0,0,0-.6.728l-.6,9.256a.666.666,0,0,1-.68.633H6.521a.677.677,0,0,1-.68-.633l-.617-9.241a.8.8,0,0,0-.57-.712,2.816,2.816,0,0,1-.759-.3,3.807,3.807,0,0,1-.111-.886L3.23,79.918h0c.791-.237,2.089-.649,2.769-.87l2.263,2.12a.825.825,0,0,0,1.108,0l2.263-2.12c.222.063.491.158.791.253a.806.806,0,0,0,.491-1.535c-.68-.222-1.234-.4-1.234-.4a.833.833,0,0,0-.807.174l-2.057,1.93-2.057-1.93a.8.8,0,0,0-.807-.174s-2.168.7-3.259,1.028A1.46,1.46,0,0,0,1.6,79.855v.174h0l.538,9.652a.776.776,0,0,0,.016.174c.095,1.424.3,1.946,1.487,2.405l.57,8.7a2.313,2.313,0,0,0,2.294,2.152h4.589a2.313,2.313,0,0,0,2.294-2.152l.585-9.019a.839.839,0,0,0,.016-.522A.812.812,0,0,0,12.992,90.867Z" transform="translate(0 -51.792)" fill="#3157ae"/>
    <path id="Контур_6" data-name="Контур 6" d="M26.056,27.211A3.956,3.956,0,1,0,22.1,23.256,3.957,3.957,0,0,0,26.056,27.211Zm0-6.282a2.342,2.342,0,1,1-2.342,2.342A2.347,2.347,0,0,1,26.056,20.93Z" transform="translate(-17.256 -2.946)" fill="#3157ae"/>
    <path id="Контур_7" data-name="Контур 7" d="M95.739,78.2c-1.092-.332-3.259-1.028-3.259-1.028a.833.833,0,0,0-.807.174l-2.057,1.93-2.057-1.93a.8.8,0,0,0-.807-.174s-2.168.7-3.259,1.028A1.444,1.444,0,0,0,82.4,79.655l.538,9.858.016.158c.095,1.424.3,1.962,1.487,2.405l.57,8.7a2.313,2.313,0,0,0,2.294,2.152h4.6a2.313,2.313,0,0,0,2.294-2.152l.57-8.7c1.187-.459,1.392-1,1.487-2.405l.554-9.873v-.142A1.4,1.4,0,0,0,95.739,78.2ZM94.663,89.386l-.016.158a3.62,3.62,0,0,1-.111.854,2.935,2.935,0,0,1-.775.3.8.8,0,0,0-.57.728l-.6,9.24a.666.666,0,0,1-.68.633h-4.6a.688.688,0,0,1-.68-.633l-.6-9.24a.833.833,0,0,0-.57-.728,2.815,2.815,0,0,1-.759-.3,3.745,3.745,0,0,1-.111-.854L84.03,79.75V79.7c.791-.237,2.089-.649,2.769-.87l2.263,2.12a.825.825,0,0,0,1.108,0l2.263-2.1c.68.222,1.978.633,2.769.87Z" transform="translate(-68.015 -51.624)" fill="#3157ae"/>
    <path id="Контур_8" data-name="Контур 8" d="M187.14,78.2c-1.092-.332-3.26-1.028-3.26-1.028a.833.833,0,0,0-.807.174l-2.057,1.93-2.057-1.93a.8.8,0,0,0-.807-.174s-.554.174-1.234.4a.806.806,0,1,0,.49,1.535c.3-.095.57-.19.791-.253l2.263,2.12a.825.825,0,0,0,1.108,0l2.263-2.12c.68.222,1.962.617,2.769.87l-.538,9.668-.016.158a3.62,3.62,0,0,1-.111.854,2.935,2.935,0,0,1-.775.3.8.8,0,0,0-.57.728l-.6,9.24a.687.687,0,0,1-.68.633h-4.6a.7.7,0,0,1-.68-.633l-.617-9.24a.867.867,0,0,0-.6-.728.782.782,0,0,0-1,.522.808.808,0,0,0,0,.475l.6,9.082a2.3,2.3,0,0,0,2.294,2.152h4.6a2.313,2.313,0,0,0,2.294-2.152l.57-8.7c1.187-.459,1.392-.981,1.487-2.389,0-.063.016-.206.016-.206l.538-9.7v-.142A1.441,1.441,0,0,0,187.14,78.2Z" transform="translate(-146.616 -51.624)" fill="#3157ae"/>
    <path id="Контур_9" data-name="Контур 9" d="M187.856,27.211a3.956,3.956,0,1,0-3.956-3.956A3.957,3.957,0,0,0,187.856,27.211Zm0-6.282a2.342,2.342,0,1,1-2.342,2.342A2.347,2.347,0,0,1,187.856,20.93Z" transform="translate(-153.455 -2.946)" fill="#3157ae"/>
  </g>
</svg>