<svg xmlns="http://www.w3.org/2000/svg" width="40" height="40" viewBox="0 0 40 40">
  <g id="building" transform="translate(-1)">
    <rect id="Прямоугольник_73" data-name="Прямоугольник 73" width="2" height="2" transform="translate(18 15)" fill="#3157ae"/>
    <rect id="Прямоугольник_74" data-name="Прямоугольник 74" width="2" height="2" transform="translate(21 15)" fill="#3157ae"/>
    <rect id="Прямоугольник_75" data-name="Прямоугольник 75" width="2" height="2" transform="translate(24 15)" fill="#3157ae"/>
    <rect id="Прямоугольник_76" data-name="Прямоугольник 76" width="2" height="2" transform="translate(27 15)" fill="#3157ae"/>
    <rect id="Прямоугольник_77" data-name="Прямоугольник 77" width="2" height="2" transform="translate(18 18)" fill="#3157ae"/>
    <rect id="Прямоугольник_78" data-name="Прямоугольник 78" width="2" height="2" transform="translate(21 18)" fill="#3157ae"/>
    <rect id="Прямоугольник_79" data-name="Прямоугольник 79" width="2" height="2" transform="translate(24 18)" fill="#3157ae"/>
    <rect id="Прямоугольник_80" data-name="Прямоугольник 80" width="2" height="2" transform="translate(27 18)" fill="#3157ae"/>
    <rect id="Прямоугольник_81" data-name="Прямоугольник 81" width="2" height="2" transform="translate(18 21)" fill="#3157ae"/>
    <rect id="Прямоугольник_82" data-name="Прямоугольник 82" width="2" height="2" transform="translate(21 21)" fill="#3157ae"/>
    <rect id="Прямоугольник_83" data-name="Прямоугольник 83" width="2" height="2" transform="translate(24 21)" fill="#3157ae"/>
    <rect id="Прямоугольник_84" data-name="Прямоугольник 84" width="2" height="2" transform="translate(27 21)" fill="#3157ae"/>
    <rect id="Прямоугольник_85" data-name="Прямоугольник 85" width="2" height="2" transform="translate(18 24)" fill="#3157ae"/>
    <rect id="Прямоугольник_86" data-name="Прямоугольник 86" width="2" height="2" transform="translate(21 24)" fill="#3157ae"/>
    <rect id="Прямоугольник_87" data-name="Прямоугольник 87" width="2" height="2" transform="translate(24 24)" fill="#3157ae"/>
    <rect id="Прямоугольник_88" data-name="Прямоугольник 88" width="2" height="2" transform="translate(27 24)" fill="#3157ae"/>
    <rect id="Прямоугольник_89" data-name="Прямоугольник 89" width="2" height="2" transform="translate(4 20)" fill="#3157ae"/>
    <rect id="Прямоугольник_90" data-name="Прямоугольник 90" width="2" height="2" transform="translate(7.5 20)" fill="#3157ae"/>
    <rect id="Прямоугольник_91" data-name="Прямоугольник 91" width="2" height="2" transform="translate(11 20)" fill="#3157ae"/>
    <rect id="Прямоугольник_92" data-name="Прямоугольник 92" width="2" height="2" transform="translate(4 23)" fill="#3157ae"/>
    <rect id="Прямоугольник_93" data-name="Прямоугольник 93" width="2" height="2" transform="translate(7.5 23)" fill="#3157ae"/>
    <rect id="Прямоугольник_94" data-name="Прямоугольник 94" width="2" height="2" transform="translate(11 23)" fill="#3157ae"/>
    <rect id="Прямоугольник_95" data-name="Прямоугольник 95" width="2" height="2" transform="translate(4 26)" fill="#3157ae"/>
    <rect id="Прямоугольник_96" data-name="Прямоугольник 96" width="2" height="2" transform="translate(7.5 26)" fill="#3157ae"/>
    <rect id="Прямоугольник_97" data-name="Прямоугольник 97" width="2" height="2" transform="translate(11 26)" fill="#3157ae"/>
    <rect id="Прямоугольник_98" data-name="Прямоугольник 98" width="2" height="2" transform="translate(4 29)" fill="#3157ae"/>
    <rect id="Прямоугольник_99" data-name="Прямоугольник 99" width="2" height="2" transform="translate(7.5 29)" fill="#3157ae"/>
    <rect id="Прямоугольник_100" data-name="Прямоугольник 100" width="2" height="2" transform="translate(11 29)" fill="#3157ae"/>
    <rect id="Прямоугольник_101" data-name="Прямоугольник 101" width="4" height="2" transform="translate(34 18)" fill="#3157ae"/>
    <rect id="Прямоугольник_102" data-name="Прямоугольник 102" width="4" height="2" transform="translate(34 15)" fill="#3157ae"/>
    <rect id="Прямоугольник_103" data-name="Прямоугольник 103" width="4" height="2" transform="translate(34 21)" fill="#3157ae"/>
    <rect id="Прямоугольник_104" data-name="Прямоугольник 104" width="4" height="2" transform="translate(34 24)" fill="#3157ae"/>
    <rect id="Прямоугольник_105" data-name="Прямоугольник 105" width="4" height="2" transform="translate(34 27)" fill="#3157ae"/>
    <rect id="Прямоугольник_106" data-name="Прямоугольник 106" width="4" height="2" transform="translate(34 30)" fill="#3157ae"/>
    <rect id="Прямоугольник_107" data-name="Прямоугольник 107" width="4" height="2" transform="translate(34 33)" fill="#3157ae"/>
    <path id="Контур_47" data-name="Контур 47" d="M38.5,7.667H36.833v3.316L31,6.9v4.934H28.5V6H24.333V1H22.667V6H18.5v5.833H14.333v5h-10V15.512l1.036-1.036a4.166,4.166,0,0,0,5.243-.529l.589-.589L5.31,7.465l-.589.589a4.174,4.174,0,0,0-.53,5.243L2.667,14.822v2.012H1V41H41V13.9l-2.5-1.75ZM5.411,9.922l3.334,3.334A2.555,2.555,0,0,1,5.9,12.767,2.5,2.5,0,0,1,5.411,9.922ZM20.167,7.667h6.667v4.167H20.167ZM14.333,39.333H2.667V18.5H14.333Zm7.5,0V33.5h3.333v5.833Zm9.167,0H26.833v-7.5H20.167v7.5H16V13.5H31Zm8.333,0H32.667V10.1l6.667,4.667Z" transform="translate(0 -1)" fill="#3157ae"/>
  </g>
</svg>
