<svg id="delivery" xmlns="http://www.w3.org/2000/svg" width="27.218" height="30" viewBox="0 0 27.218 30">
  <path id="Контур_30" data-name="Контур 30" d="M128.2,94.009c0-.009,0-.018-.009-.018,0-.018-.009-.026-.009-.044s-.009-.026-.009-.035-.009-.018-.009-.026a.473.473,0,0,0-.061-.114h0L122.4,85.39a.648.648,0,0,0-.544-.29H107.363a.648.648,0,0,0-.544.29l-5.705,8.382h0a.725.725,0,0,0-.061.114c0,.009-.009.018-.009.026a.053.053,0,0,0-.009.035c0,.018-.009.026-.009.044s0,.018-.009.018a.678.678,0,0,0-.018.132h0v20.3a.663.663,0,0,0,.658.658h25.9a.663.663,0,0,0,.658-.658V94.14h0C128.209,94.1,128.209,94.053,128.2,94.009Zm-1.9-.527h-8.5l-.8-7.066h4.494ZM112.647,94.8h3.906v4.827l-1.571-1.106a.641.641,0,0,0-.755,0l-1.571,1.106V94.8Zm3.028-8.382.8,7.066h-3.748l.8-7.066Zm-7.961,0h4.494l-.8,7.066h-8.5Zm19.178,27.367H102.317V94.8h9.023v6.091a.676.676,0,0,0,.351.588.663.663,0,0,0,.685-.044l2.229-1.571,2.229,1.571a.667.667,0,0,0,.377.123.748.748,0,0,0,.307-.07.659.659,0,0,0,.351-.588V94.807h9.023Z" transform="translate(-101 -85.1)" fill="#3254b1"/>
  <path id="Контур_31" data-name="Контур 31" d="M147.4,330.4h-6.226a.878.878,0,0,0,0,1.755H147.4a.878.878,0,0,0,0-1.755Z" transform="translate(-135.701 -309.9)" fill="#3254b1"/>
  <path id="Контур_32" data-name="Контур 32" d="M144.291,361.9h-3.113a.878.878,0,0,0,0,1.755h3.113a.878.878,0,0,0,0-1.755Z" transform="translate(-135.701 -338.207)" fill="#3254b1"/>
</svg>
