<svg xmlns="http://www.w3.org/2000/svg" width="253.015" height="50" viewBox="0 0 253.015 50">
  <g id="logotype_white" transform="translate(0 -25.5)">
    <path id="prom" d="M98.109,0H93.445V-13.348H88.723V0H84.07V-17.133H98.109Zm16.125-11.684a5.738,5.738,0,0,1-1.693,4.436,6.831,6.831,0,0,1-4.811,1.564h-1.3V0H101.8V-17.133h5.93a7.248,7.248,0,0,1,4.875,1.418A5.058,5.058,0,0,1,114.234-11.684Zm-7.8,2.227h.844a2.3,2.3,0,0,0,1.658-.586,2.127,2.127,0,0,0,.615-1.617q0-1.734-1.922-1.734h-1.2ZM133-8.59q0,4.324-2.121,6.574T124.664.234a8.126,8.126,0,0,1-6.182-2.262q-2.15-2.262-2.15-6.586,0-4.277,2.139-6.533a8.163,8.163,0,0,1,6.217-2.256q4.09,0,6.2,2.238T133-8.59Zm-11.789,0q0,4.969,3.457,4.969a2.972,2.972,0,0,0,2.607-1.207,6.612,6.612,0,0,0,.85-3.762,6.656,6.656,0,0,0-.861-3.791,2.938,2.938,0,0,0-2.572-1.225Q121.207-13.605,121.207-8.59ZM143.555,0l-3.5-12.34h-.105q.246,3.152.246,4.9V0h-4.1V-17.133h6.164l3.574,12.164h.094l3.5-12.164H155.6V0h-4.254V-7.512q0-.586.018-1.3t.158-3.5h-.105L147.961,0Zm14.391-4.605V-8.262h6.621v3.656ZM174.387,0l-3.5-12.34h-.105q.246,3.152.246,4.9V0h-4.1V-17.133h6.164L176.66-4.969h.094l3.5-12.164h6.176V0H182.18V-7.512q0-.586.018-1.3t.158-3.5h-.105L178.793,0Z" transform="translate(66.582 59.5)" fill="#b8d3ff"/>
    <g id="symbol" transform="translate(0 25.5)">
      <path id="square" d="M47.217-106.525,25.791-127.952,4.365-106.525h4.75L24.209-121.62v19.459H0L24.209-77.952V-82.7L7.914-99H43.668L27.373-82.7v4.75l24.209-24.209H27.373V-121.62l15.094,15.094Z" transform="translate(0 127.952)" fill="#e31d24" fill-rule="evenodd"/>
      <path id="m" d="M56.952-43.323l-1.839-3.25V-40.6h-2.48V-51.811h2.951l2.273,4.853,2.273-4.853H63.08V-40.6H60.6v-5.976l-1.839,3.25Z" transform="translate(-32.066 81.565)" fill="#fff" fill-rule="evenodd"/>
    </g>
    <path id="techno" d="M9.41,0H4.781V-13.348H.6v-3.785H13.582v3.785H9.41ZM26.2,0H16.031V-17.133H26.2v3.715H20.66v2.7h5.133v3.715H20.66v3.234H26.2ZM44.637,0H39.281l-3.34-5.355L32.637,0H27.4l5.684-8.766-5.344-8.367h5.133l3.094,5.3,2.977-5.3h5.285L38.8-8.4ZM61.242,0H56.59V-6.984H51.211V0H46.559V-17.133h4.652v6.352H56.59v-6.352h4.652ZM80.977-8.59q0,4.324-2.121,6.574T72.645.234a8.126,8.126,0,0,1-6.182-2.262q-2.15-2.262-2.15-6.586,0-4.277,2.139-6.533A8.163,8.163,0,0,1,72.668-17.4q4.09,0,6.2,2.238T80.977-8.59Zm-11.789,0q0,4.969,3.457,4.969a2.972,2.972,0,0,0,2.607-1.207A6.612,6.612,0,0,0,76.1-8.59a6.656,6.656,0,0,0-.861-3.791,2.938,2.938,0,0,0-2.572-1.225Q69.188-13.605,69.188-8.59Z" transform="translate(66.582 59.5)" fill="#fff"/>
  </g>
</svg>
