<svg xmlns="http://www.w3.org/2000/svg" width="30" height="26.735" viewBox="0 0 30 26.735">
  <path id="payment" d="M31,27.48h0a3.26,3.26,0,0,1-3.261,3.261H4.261A3.26,3.26,0,0,1,1,27.48V8.567A2.609,2.609,0,0,1,3.609,5.959H16.764l5.282-1.913a.646.646,0,0,1,.827.384l.556,1.529h2.354a2.609,2.609,0,0,1,2.609,2.609v1.3h0A2.609,2.609,0,0,1,31,12.48ZM3.609,7.263h0a1.3,1.3,0,1,0,0,2.609h2.37c.008,0,.014-.01.022-.014l7.162-2.595Zm18.964.118L21.88,5.474h0l-1.338.485h0l-3.6,1.3h-.007l-7.2,2.609H23.478Zm4.514,1.186a1.3,1.3,0,0,0-1.3-1.3H23.9l.948,2.609h2.236Zm1.3,2.609H3.609a2.579,2.579,0,0,1-1.3-.362V27.48a1.957,1.957,0,0,0,1.957,1.957H27.739A1.956,1.956,0,0,0,29.7,27.48V22.915H27.087a2.609,2.609,0,1,1,0-5.217H29.7V12.48A1.3,1.3,0,0,0,28.391,11.176Zm1.3,10.435V19H27.087a1.3,1.3,0,0,0,0,2.609Zm-2.609-1.957h1.3v1.3h-1.3Z" transform="translate(-1 -4.006)" fill="#426eda" fill-rule="evenodd"/>
</svg>
