<svg xmlns="http://www.w3.org/2000/svg" width="282.016" height="54" viewBox="0 0 282.016 54">
  <g id="proton" transform="translate(1.016 -2.848)">
    <path id="Контур_42" data-name="Контур 42" d="M21.164,7.022c3.35,0,7.136-.342,10.437.439a15.129,15.129,0,0,1,3.35,1.171,15.384,15.384,0,0,1,7.33,8.05l.049-.049v.146a27.3,27.3,0,0,1,.874,2.83l13.544.1c.485,4.635.971,9.318,1.5,13.953h-9.66L45.1,58.443H29.514l2.282-16.1a14.886,14.886,0,0,1-1.5.829,37.8,37.8,0,0,1-11.553,3.415l-3.35.488c-.68-4.44-1.408-9.269-2.087-13.709l4.9-11.9H15.242Z" transform="translate(-11.455 -1.595)" fill="#1756a4"/>
    <path id="Контур_43" data-name="Контур 43" d="M17.364,3.922c3.35,0,7.136-.342,10.437.439a14.827,14.827,0,0,1,10.68,9.221l.049-.049-.049.146a27.3,27.3,0,0,1,.874,2.83l13.592.049c.485,4.635.971,9.318,1.5,13.953h-9.66L41.3,55.294H25.714L28,39.195c-.485.293-.971.537-1.5.829a39.2,39.2,0,0,1-11.553,3.415l-3.35.488c-.68-4.44-1.408-9.269-2.087-13.709l4.9-11.9H11.442Z" transform="translate(-9.5 0)" fill="none" stroke="#1756a4" stroke-linecap="round" stroke-linejoin="round" stroke-miterlimit="10" stroke-width="2.033"/>
    <path id="Контур_44" data-name="Контур 44" d="M17.364,3.922c3.35,0,7.136-.342,10.437.439a14.827,14.827,0,0,1,10.68,9.221l.049-.049-.049.146a27.3,27.3,0,0,1,.874,2.83l13.592.049c.485,4.635.971,9.318,1.5,13.953h-9.66L41.3,55.294H25.714L28,39.195c-.485.293-.971.537-1.5.829a39.2,39.2,0,0,1-11.553,3.415l-3.35.488c-.68-4.44-1.408-9.269-2.087-13.709l4.9-11.9H11.442Z" transform="translate(-9.5 0)" fill="#fefefe"/>
    <path id="Контур_45" data-name="Контур 45" d="M20.5,18.57l3.058-7.47h4.369c7.476,0,12.184,5.713,12.33,12.5l13.544.1.777,7.08H45.744l-3.5,24.8H33.559l3.155-22.118c-3.981,6.689-10.777,9.13-18.35,10.253L17.2,36.294c5.1-.928,8.786-1.758,12.573-5.468H18.122l3.2-7.275H32.637c-.291-3.027-1.553-5.029-4.757-4.98H20.5Z" transform="translate(-13.462 -3.732)" fill="#1756a4" fill-rule="evenodd"/>
    <path id="Контур_46" data-name="Контур 46" d="M132.65,47.863h-3.738V33.4h-4.126V47.863H121V28.688h11.65Zm2.524-19.175h6.214a3.449,3.449,0,0,1,3.058,1.553,7.857,7.857,0,0,1,1.019,4.369,7.845,7.845,0,0,1-1.116,4.563,3.862,3.862,0,0,1-3.4,1.6h-1.99v7.136h-3.786Zm3.786,8.155h.922a1.847,1.847,0,0,0,1.553-.583,2.508,2.508,0,0,0,.437-1.5,2.883,2.883,0,0,0-.388-1.5,1.505,1.505,0,0,0-1.456-.631h-1.068Zm8.01,1.456a13.668,13.668,0,0,1,1.65-7.33,5.436,5.436,0,0,1,9.272-.049c1.117,1.7,1.65,4.126,1.65,7.184a17.775,17.775,0,0,1-.728,5.534,7.757,7.757,0,0,1-2.087,3.35,5.1,5.1,0,0,1-3.4,1.214,5.44,5.44,0,0,1-3.4-1.019,7.538,7.538,0,0,1-2.184-3.3,15.65,15.65,0,0,1-.777-5.583Zm3.786,0a9.562,9.562,0,0,0,.68,4.175,2.079,2.079,0,0,0,1.893,1.262,2.185,2.185,0,0,0,1.893-1.262,10.49,10.49,0,0,0,.68-4.466,9.021,9.021,0,0,0-.68-3.981,2.13,2.13,0,0,0-1.893-1.262,2,2,0,0,0-1.8,1.262,8.266,8.266,0,0,0-.777,4.272Zm10-9.612h11.456v4.757h-3.835V47.863h-3.786V33.4h-3.835Zm12.67,9.612a13.668,13.668,0,0,1,1.65-7.33,5.248,5.248,0,0,1,4.66-2.621,5.194,5.194,0,0,1,4.66,2.573,13.559,13.559,0,0,1,1.65,7.184,17.775,17.775,0,0,1-.728,5.534,7.477,7.477,0,0,1-2.087,3.35,5.065,5.065,0,0,1-3.35,1.214,5.439,5.439,0,0,1-3.4-1.019,7.147,7.147,0,0,1-2.184-3.3,15.489,15.489,0,0,1-.874-5.583Zm3.738,0a9.562,9.562,0,0,0,.68,4.175,2.015,2.015,0,0,0,3.738,0,10.49,10.49,0,0,0,.68-4.466,9.021,9.021,0,0,0-.68-3.981,2.015,2.015,0,0,0-3.738,0,10.38,10.38,0,0,0-.68,4.272Zm10.922-9.612h3.738v6.7h4.126v-6.7h3.786V47.863h-3.786V40.1h-4.126v7.767h-3.738ZM201.34,38.834h4.9V42.96h-4.9Zm6.117-5.631c1.019-3.2,2.864-4.806,5.631-4.806a5.1,5.1,0,0,1,4.66,2.573c1.117,1.7,1.65,4.126,1.65,7.233q0,4.879-1.6,7.427a5.524,5.524,0,0,1-8.641.971,9.443,9.443,0,0,1-1.99-4.272l3.544-1.5c.34,1.99,1.117,2.961,2.379,2.961,1.408,0,2.233-1.214,2.476-3.689h-3.641V36.552h3.689c-.243-2.476-1.068-3.689-2.476-3.689-1.117,0-1.845.825-2.233,2.427ZM232.6,47.863h-3.786V33.4H225.9v5.922a45.551,45.551,0,0,1-.243,5.34,3.863,3.863,0,0,1-1.165,2.524,4.272,4.272,0,0,1-2.913.777,5.144,5.144,0,0,1-1.408-.194V43.883h.583a1.172,1.172,0,0,0,1.068-.534,4.313,4.313,0,0,0,.34-1.942V28.688H232.6V47.863Zm2.476-19.175h10.049v4.078h-6.311v3.058h5.825v3.883h-5.825v3.786h6.5v4.32H235.078Zm23.35,19.175H254.2l-1.456-4.951a9.749,9.749,0,0,0-.825-2.184.875.875,0,0,0-.777-.437v7.573h-3.738V28.688h3.738v7.379a.883.883,0,0,0,.777-.534,15.787,15.787,0,0,0,.874-2.913,10.949,10.949,0,0,1,.874-2.573,2.375,2.375,0,0,1,1.408-1.117,9.4,9.4,0,0,1,3.058-.34v4.078h-.194a1.665,1.665,0,0,0-1.408.583,5.11,5.11,0,0,0-.777,1.845,10.077,10.077,0,0,1-.631,1.942,2.687,2.687,0,0,1-.922,1.019,3.705,3.705,0,0,1,1.408,1.456,16.118,16.118,0,0,1,1.262,3.2Zm.485-19.175h11.456v4.757h-3.835V47.863h-3.786V33.4h-3.835Zm13.107,0h6.262a3.449,3.449,0,0,1,3.058,1.553,7.857,7.857,0,0,1,1.019,4.369,8.233,8.233,0,0,1-1.117,4.563,3.806,3.806,0,0,1-3.4,1.6h-2.039v7.136h-3.786Zm3.786,8.155h.922a1.744,1.744,0,0,0,1.5-.583,2.509,2.509,0,0,0,.437-1.5,2.883,2.883,0,0,0-.388-1.5,1.469,1.469,0,0,0-1.408-.631h-1.068Zm8.058,1.456a14.129,14.129,0,0,1,1.65-7.33,5.227,5.227,0,0,1,4.612-2.621,5.327,5.327,0,0,1,4.709,2.573,13.56,13.56,0,0,1,1.65,7.184,17.775,17.775,0,0,1-.728,5.534,7.478,7.478,0,0,1-2.087,3.35,5.1,5.1,0,0,1-3.4,1.214,5.44,5.44,0,0,1-3.4-1.019,7.538,7.538,0,0,1-2.184-3.3,16.722,16.722,0,0,1-.825-5.583Zm3.786,0a9.562,9.562,0,0,0,.68,4.175,2.051,2.051,0,0,0,3.786,0,10.491,10.491,0,0,0,.68-4.466,9.022,9.022,0,0,0-.68-3.981,2.079,2.079,0,0,0-1.893-1.262,2.118,2.118,0,0,0-1.845,1.262,8.884,8.884,0,0,0-.728,4.272Zm10-9.612h11.456v4.757h-3.835V47.863h-3.738V33.4H297.7V28.688Zm13.107,0h10.049v4.078H314.5v3.058h5.825v3.883H314.5v3.786H321v4.32H310.757Zm23.349,19.175h-4.223l-1.456-4.951a9.751,9.751,0,0,0-.825-2.184.875.875,0,0,0-.777-.437v7.573h-3.738V28.688h3.738v7.379a.882.882,0,0,0,.777-.534,15.785,15.785,0,0,0,.874-2.913,10.951,10.951,0,0,1,.874-2.573,2.374,2.374,0,0,1,1.408-1.117,9.4,9.4,0,0,1,3.058-.34v4.078h-.194a1.665,1.665,0,0,0-1.408.583,5.11,5.11,0,0,0-.777,1.845,10.079,10.079,0,0,1-.631,1.942,2.687,2.687,0,0,1-.922,1.019,3.706,3.706,0,0,1,1.408,1.456,16.118,16.118,0,0,1,1.262,3.2Zm9.466-7.816,3.3,1.553a12.975,12.975,0,0,1-1.068,3.641,5.985,5.985,0,0,1-1.748,2.233,4.724,4.724,0,0,1-2.718.728,5.269,5.269,0,0,1-3.252-.922,7.7,7.7,0,0,1-2.184-3.2,16.551,16.551,0,0,1-.922-5.874c0-3.2.534-5.631,1.6-7.33a5.094,5.094,0,0,1,4.563-2.573,4.718,4.718,0,0,1,3.641,1.456,9.789,9.789,0,0,1,1.942,4.515l-3.3,1.165a5.641,5.641,0,0,0-.388-1.262,3.043,3.043,0,0,0-.777-1.068,1.524,1.524,0,0,0-1.019-.34c-.874,0-1.5.534-1.99,1.6a10.468,10.468,0,0,0-.485,3.786,10,10,0,0,0,.631,4.369,1.852,1.852,0,0,0,3.35.194,5.959,5.959,0,0,0,.825-2.67Z" transform="translate(-65.874 -12.49)" fill="#1756a4"/>
  </g>
</svg>
