<?xml version="1.0" encoding="UTF-8" standalone="no"?>
<!DOCTYPE svg PUBLIC "-//W3C//DTD SVG 1.1//EN" "http://www.w3.org/Graphics/SVG/1.1/DTD/svg11.dtd">
<svg width="100%" height="100%" viewBox="0 0 162 81" version="1.1" xmlns="http://www.w3.org/2000/svg" xmlns:xlink="http://www.w3.org/1999/xlink" xml:space="preserve" xmlns:serif="http://www.serif.com/" style="fill-rule:evenodd;clip-rule:evenodd;stroke-linejoin:round;stroke-miterlimit:2;">
    <g transform="matrix(1,0,0,1,-739.145,-478.755)">
        <g transform="matrix(1,0,0,1,-0.044,281.446)">
            <path d="M817.496,246.542C816.77,251.137 815.152,255.484 812.642,259.582C809.111,265.348 804.322,269.91 798.275,273.27C792.228,276.629 785.658,278.309 778.564,278.309C771.47,278.309 764.9,276.629 758.853,273.27C752.806,269.91 748.017,265.348 744.486,259.582C741.976,255.484 740.358,251.137 739.632,246.542L743.076,246.542C743.542,249.099 744.324,251.595 745.423,254.028C747.329,258.246 749.892,261.879 753.111,264.926C756.329,267.973 760.165,270.403 764.619,272.215C769.072,274.028 773.72,274.934 778.564,274.934C783.408,274.934 788.056,274.028 792.509,272.215C796.962,270.403 800.798,267.973 804.017,264.926C807.236,261.879 809.798,258.246 811.704,254.028C812.804,251.595 813.586,249.099 814.051,246.542L817.496,246.542ZM810.616,246.542C810.184,248.658 809.508,250.723 808.587,252.738C806.853,256.535 804.533,259.809 801.626,262.559C798.72,265.309 795.251,267.496 791.22,269.121C787.189,270.746 782.97,271.559 778.564,271.559C774.158,271.559 769.939,270.746 765.908,269.121C761.876,267.496 758.408,265.309 755.501,262.559C752.595,259.809 750.275,256.535 748.54,252.738C747.62,250.723 746.944,248.658 746.512,246.542L749.94,246.542C750.57,249.334 751.673,251.993 753.251,254.52C755.876,258.723 759.431,262.051 763.915,264.504C768.4,266.957 773.283,268.184 778.564,268.184C783.845,268.184 788.728,266.957 793.212,264.504C797.697,262.051 801.251,258.723 803.876,254.52C805.454,251.993 806.558,249.334 807.187,246.542L810.616,246.542ZM803.685,246.542C803.356,247.756 802.92,248.946 802.376,250.113C801.001,253.067 799.158,255.621 796.845,257.778C794.533,259.934 791.783,261.645 788.595,262.91C785.408,264.176 782.064,264.809 778.564,264.809C775.064,264.809 771.72,264.176 768.533,262.91C765.345,261.645 762.595,259.934 760.283,257.778C757.97,255.621 756.126,253.067 754.751,250.113C754.208,248.946 753.772,247.756 753.443,246.542L756.929,246.542C757.43,248.135 758.15,249.669 759.087,251.145C761.103,254.317 763.837,256.824 767.29,258.668C770.744,260.512 774.501,261.434 778.564,261.434C782.626,261.434 786.384,260.512 789.837,258.668C793.29,256.824 796.025,254.317 798.04,251.145C798.978,249.669 799.697,248.135 800.199,246.542L803.685,246.542ZM796.654,246.542C795.736,248.917 794.205,251.069 792.064,252.996C788.314,256.371 783.814,258.059 778.564,258.059C773.314,258.059 768.814,256.371 765.064,252.996C762.922,251.069 761.392,248.917 760.474,246.542L764.178,246.542C764.942,248.01 766.026,249.365 767.431,250.606C770.509,253.324 774.22,254.684 778.564,254.684C782.908,254.684 786.619,253.324 789.697,250.606C791.102,249.365 792.186,248.01 792.949,246.542L796.654,246.542ZM742.564,219.108L739.189,219.108L739.189,197.309L742.564,197.309L742.564,219.108ZM749.314,219.108L745.939,219.108L745.939,197.309L749.314,197.309L749.314,219.108ZM756.064,219.108L752.689,219.108L752.689,197.309L756.064,197.309L756.064,219.108ZM762.814,219.108L759.439,219.108L759.439,197.309L762.814,197.309L762.814,219.108ZM797.689,219.108L794.314,219.108L794.314,197.309L797.689,197.309L797.689,219.108ZM804.439,219.108L801.064,219.108L801.064,197.309L804.439,197.309L804.439,219.108ZM811.189,219.108L807.814,219.108L807.814,197.309L811.189,197.309L811.189,219.108ZM817.939,219.108L814.564,219.108L814.564,197.309L817.939,197.309L817.939,219.108Z" style="fill:white;fill-rule:nonzero;"/>
            <path d="M843.439,246.542L843.439,274.934L840.064,274.934L840.064,246.542L843.439,246.542ZM836.689,246.542L836.689,274.934L833.314,274.934L833.314,246.542L836.689,246.542ZM829.939,246.542L829.939,274.934L826.564,274.934L826.564,246.542L829.939,246.542ZM850.189,246.542L850.189,274.934L846.814,274.934L846.814,246.542L850.189,246.542ZM893.069,246.542C892.827,246.793 892.581,247.038 892.329,247.278C889.736,249.746 886.72,251.66 883.283,253.02C879.845,254.379 876.22,255.059 872.408,255.059L852.814,255.059L852.814,251.684L872.408,251.684C875.751,251.684 878.954,251.02 882.017,249.692C883.99,248.836 885.797,247.786 887.439,246.542L893.069,246.542ZM880.933,246.542C878.259,247.72 875.417,248.309 872.408,248.309L852.814,248.309L852.814,246.542L880.933,246.542ZM826.564,219.108L826.564,197.309L872.408,197.309C877.408,197.309 882.095,198.613 886.47,201.223C890.845,203.832 894.329,207.324 896.923,211.699C898.335,214.081 899.363,216.55 900.006,219.108L896.516,219.108C895.947,217.133 895.114,215.219 894.017,213.363C891.736,209.504 888.665,206.426 884.806,204.129C880.947,201.832 876.814,200.684 872.408,200.684L829.939,200.684L829.939,219.108L826.564,219.108ZM833.314,219.108L833.314,204.059L872.408,204.059C876.189,204.059 879.751,205.059 883.095,207.059C886.439,209.059 889.103,211.731 891.087,215.074C891.867,216.387 892.493,217.732 892.966,219.108L889.392,219.108C888.475,216.911 887.071,214.863 885.181,212.965C881.509,209.278 877.251,207.434 872.408,207.434L836.689,207.434L836.689,219.108L833.314,219.108ZM840.064,219.108L840.064,210.809L872.408,210.809C876.345,210.809 879.814,212.324 882.814,215.356C883.988,216.542 884.932,217.793 885.646,219.108L881.637,219.108C881.275,218.635 880.871,218.173 880.423,217.723C878.079,215.363 875.408,214.184 872.408,214.184L843.439,214.184L843.439,219.108L840.064,219.108ZM846.814,219.108L846.814,217.559L872.408,217.559C874.176,217.559 875.751,218.075 877.133,219.108L846.814,219.108Z" style="fill:white;fill-rule:nonzero;"/>
            <g transform="matrix(1.84427,0,0,1.84427,633.384,-276.009)">
                <path d="M62.769,271.675L64.929,271.675L64.929,277.795C64.929,278.635 64.739,279.245 64.359,279.625C63.979,280.005 63.369,280.195 62.529,280.195L59.769,280.195C58.929,280.195 58.319,280.005 57.939,279.625C57.559,279.245 57.369,278.635 57.369,277.795L57.369,271.675L59.529,271.675L59.529,277.795C59.529,278.275 59.769,278.515 60.249,278.515L62.049,278.515C62.529,278.515 62.769,278.275 62.769,277.795L62.769,271.675Z" style="fill:white;fill-rule:nonzero;"/>
                <path d="M66.369,271.675L71.409,271.675C72.249,271.675 72.859,271.865 73.239,272.245C73.619,272.625 73.809,273.235 73.809,274.075L73.809,275.275C73.809,276.115 73.619,276.725 73.239,277.105C72.859,277.485 72.249,277.675 71.409,277.675L68.529,277.675L68.529,280.075L66.369,280.075L66.369,271.675ZM71.649,274.075C71.649,273.595 71.409,273.355 70.929,273.355L68.529,273.355L68.529,275.995L70.929,275.995C71.409,275.995 71.649,275.755 71.649,275.275L71.649,274.075Z" style="fill:white;fill-rule:nonzero;"/>
                <path d="M82.089,279.895C80.217,280.095 78.497,280.195 76.929,280.195C76.145,280.195 75.569,280.011 75.201,279.643C74.833,279.275 74.649,278.699 74.649,277.915L74.649,274.075C74.649,273.235 74.839,272.625 75.219,272.245C75.599,271.865 76.209,271.675 77.049,271.675L81.369,271.675L81.369,273.355L77.529,273.355C77.049,273.355 76.809,273.595 76.809,274.075L76.809,277.915C76.809,278.099 76.863,278.245 76.971,278.353C77.079,278.461 77.225,278.515 77.409,278.515C78.329,278.515 79.169,278.495 79.929,278.455L79.929,276.715L78.369,276.715L78.369,275.275L82.089,275.275L82.089,279.895Z" style="fill:white;fill-rule:nonzero;"/>
                <path d="M83.289,271.675L88.329,271.675C89.169,271.675 89.779,271.865 90.159,272.245C90.539,272.625 90.729,273.235 90.729,274.075L90.729,275.155C90.729,275.819 90.619,276.335 90.399,276.703C90.179,277.071 89.829,277.315 89.349,277.435L90.849,280.075L88.509,280.075L87.129,277.555L85.449,277.555L85.449,280.075L83.289,280.075L83.289,271.675ZM88.569,274.075C88.569,273.595 88.329,273.355 87.849,273.355L85.449,273.355L85.449,275.875L87.849,275.875C88.329,275.875 88.569,275.635 88.569,275.155L88.569,274.075Z" style="fill:white;fill-rule:nonzero;"/>
                <path d="M93.429,280.075L91.089,280.075L94.269,271.675L96.669,271.675L99.849,280.075L97.509,280.075L96.969,278.575L93.969,278.575L93.429,280.075ZM94.509,277.015L96.429,277.015L95.469,274.195L94.509,277.015Z" style="fill:white;fill-rule:nonzero;"/>
                <path d="M105.129,271.675C106.033,271.675 106.719,271.909 107.187,272.377C107.655,272.845 107.889,273.531 107.889,274.435L107.889,277.315C107.889,278.219 107.655,278.905 107.187,279.373C106.719,279.841 106.033,280.075 105.129,280.075L100.449,280.075L100.449,271.675L105.129,271.675ZM105.729,274.435C105.729,273.715 105.369,273.355 104.649,273.355L102.609,273.355L102.609,278.395L104.649,278.395C105.369,278.395 105.729,278.035 105.729,277.315L105.729,274.435Z" style="fill:white;fill-rule:nonzero;"/>
                <path d="M115.749,280.075L109.089,280.075L109.089,271.675L115.749,271.675L115.749,273.355L111.249,273.355L111.249,274.975L114.789,274.975L114.789,276.655L111.249,276.655L111.249,278.395L115.749,278.395L115.749,280.075Z" style="fill:white;fill-rule:nonzero;"/>
                <path d="M120.309,271.675L125.349,271.675C126.189,271.675 126.799,271.865 127.179,272.245C127.559,272.625 127.749,273.235 127.749,274.075L127.749,275.275C127.749,276.115 127.559,276.725 127.179,277.105C126.799,277.485 126.189,277.675 125.349,277.675L122.469,277.675L122.469,280.075L120.309,280.075L120.309,271.675ZM125.589,274.075C125.589,273.595 125.349,273.355 124.869,273.355L122.469,273.355L122.469,275.995L124.869,275.995C125.349,275.995 125.589,275.755 125.589,275.275L125.589,274.075Z" style="fill:white;fill-rule:nonzero;"/>
                <path d="M128.829,271.675L133.869,271.675C134.709,271.675 135.319,271.865 135.699,272.245C136.079,272.625 136.269,273.235 136.269,274.075L136.269,275.155C136.269,275.819 136.159,276.335 135.939,276.703C135.719,277.071 135.369,277.315 134.889,277.435L136.389,280.075L134.049,280.075L132.669,277.555L130.989,277.555L130.989,280.075L128.829,280.075L128.829,271.675ZM134.109,274.075C134.109,273.595 133.869,273.355 133.389,273.355L130.989,273.355L130.989,275.875L133.389,275.875C133.869,275.875 134.109,275.635 134.109,275.155L134.109,274.075Z" style="fill:white;fill-rule:nonzero;"/>
                <path d="M142.869,273.955C142.869,273.475 142.629,273.235 142.149,273.235L140.109,273.235C139.629,273.235 139.389,273.475 139.389,273.955L139.389,277.795C139.389,278.275 139.629,278.515 140.109,278.515L142.149,278.515C142.629,278.515 142.869,278.275 142.869,277.795L142.869,273.955ZM145.029,277.795C145.029,278.635 144.839,279.245 144.459,279.625C144.079,280.005 143.469,280.195 142.629,280.195L139.629,280.195C138.789,280.195 138.179,280.005 137.799,279.625C137.419,279.245 137.229,278.635 137.229,277.795L137.229,273.955C137.229,273.115 137.419,272.505 137.799,272.125C138.179,271.745 138.789,271.555 139.629,271.555L142.629,271.555C143.469,271.555 144.079,271.745 144.459,272.125C144.839,272.505 145.029,273.115 145.029,273.955L145.029,277.795Z" style="fill:white;fill-rule:nonzero;"/>
            </g>
        </g>
    </g>
</svg>
